<?xml version="1.0" standalone="no"?>
<!DOCTYPE svg PUBLIC "-//W3C//DTD SVG 1.1//EN" "http://www.w3.org/Graphics/SVG/1.1/DTD/svg11.dtd" >
<svg xmlns="http://www.w3.org/2000/svg" xmlns:xlink="http://www.w3.org/1999/xlink" version="1.1">
<metadata></metadata>
<defs>
<font id="cerebri_sans_pro_boldbold" horiz-adv-x="1228" >
<font-face units-per-em="2048" ascent="1536" descent="-512" />
<missing-glyph horiz-adv-x="532" />
<glyph unicode="&#xfb01;" horiz-adv-x="1337" d="M39 815v217h207v103q0 89 25 160t69 119.5t107 80.5t136.5 46.5t159.5 14.5q181 0 297 -81.5t162 -225.5l-274 -71q-23 81 -69 116t-130 35q-199 0 -199 -194v-103h228v-217h-228v-815h-284v815h-207zM928 0v1032h284v-1032h-284z" />
<glyph unicode="&#xfb02;" horiz-adv-x="1337" d="M39 815v217h207v103q0 110 37.5 193t105 132t152.5 72.5t188 23.5q104 0 189 -23.5t152 -72.5t104.5 -132t37.5 -193v-1135h-282v1120q0 209 -201 209q-199 0 -199 -194v-103h228v-217h-228v-815h-284v815h-207z" />
<glyph horiz-adv-x="0" />
<glyph horiz-adv-x="682" />
<glyph horiz-adv-x="0" />
<glyph horiz-adv-x="0" />
<glyph unicode="&#xd;" horiz-adv-x="512" />
<glyph unicode=" "  horiz-adv-x="532" />
<glyph unicode="&#x09;" horiz-adv-x="532" />
<glyph unicode="&#xa0;" horiz-adv-x="532" />
<glyph unicode="!" horiz-adv-x="557" d="M115 143q0 67 47.5 115.5t113.5 48.5q69 0 117.5 -48t48.5 -116t-48.5 -115.5t-117.5 -47.5q-66 0 -113.5 48t-47.5 115zM133 1448h287l-31 -981h-225z" />
<glyph unicode="&#x22;" horiz-adv-x="880" d="M86 1448h270l-30 -651h-199zM526 1448h269l-39 -651h-199z" />
<glyph unicode="#" horiz-adv-x="1562" d="M74 332l26 194h283l57 392h-284l32 194h279l49 336h195l-45 -336h342l47 336h196l-47 -336h287l-31 -194h-284l-56 -392h285l-27 -194h-284l-50 -332h-194l47 332h-348l-43 -332h-197l45 332h-280zM580 526h344l55 392h-344z" />
<glyph unicode="$" horiz-adv-x="1253" d="M29 403l293 62q56 -223 262 -248v397l-60 19q-55 16 -92 28.5t-87.5 34t-84.5 42.5t-71 53t-58.5 68t-36 84.5t-14.5 105.5q0 191 139 308t365 120v118h102v-122q117 -13 211 -55.5t167 -127.5t99 -203l-266 -61q-61 174 -211 203v-369q2 -1 6 -2t6 -2q56 -16 95 -29 t92.5 -35t90.5 -44.5t76.5 -57t63.5 -73t39.5 -90.5t15.5 -113q0 -188 -131.5 -308t-353.5 -133v-135h-102v135q-222 11 -373.5 124.5t-181.5 305.5zM379 1065q0 -67 51.5 -105.5t153.5 -70.5v346q-93 -6 -149 -51.5t-56 -118.5zM686 219q86 10 132 56t46 118 q0 70 -45.5 113t-132.5 76v-363z" />
<glyph unicode="%" horiz-adv-x="1742" d="M102 1128q0 141 100 240.5t240 99.5q141 0 240.5 -100t99.5 -240q0 -141 -99.5 -241.5t-240.5 -100.5t-240.5 100t-99.5 242zM289 1128q0 -66 44.5 -110.5t108.5 -44.5q66 0 110 44.5t44 110.5q0 63 -45.5 108.5t-108.5 45.5t-108 -45t-45 -109zM373 0l755 1448h234 l-756 -1448h-233zM958 324q0 142 101 242t244 100q140 0 238.5 -100t98.5 -242q0 -140 -99 -241t-238 -101q-144 0 -244.5 100t-100.5 242zM1145 324q0 -63 46 -107.5t112 -44.5q63 0 108 44.5t45 107.5t-45.5 109t-107.5 46q-66 0 -112 -44.5t-46 -110.5z" />
<glyph unicode="&#x26;" horiz-adv-x="1548" d="M76 393q0 79 23.5 144t75.5 122t111 102t152 103l-30 39q-101 120 -101 254q0 148 109 234t276 86q192 0 300 -89t108 -227q0 -108 -73 -189t-220 -155l276 -342q105 165 105 383h256q0 -167 -51.5 -317.5t-147.5 -268.5l221 -272h-321l-84 104q-204 -133 -457 -133 q-239 0 -383.5 114.5t-144.5 307.5zM362 420q0 -100 72 -154.5t199 -54.5q145 0 272 82l-327 401q-59 -38 -90 -60.5t-64.5 -56t-47.5 -71.5t-14 -86zM573 1171q0 -67 70 -151l31 -37q162 95 162 193q0 49 -35.5 80.5t-91.5 31.5q-61 0 -98.5 -32t-37.5 -85z" />
<glyph unicode="'" horiz-adv-x="444" d="M88 1448h268l-39 -651h-198z" />
<glyph unicode="(" horiz-adv-x="724" d="M94 604q0 346 84.5 637.5t237.5 478.5h272q-163 -172 -253.5 -464.5t-90.5 -651.5t90.5 -651.5t253.5 -464.5h-272q-153 187 -237.5 478.5t-84.5 637.5z" />
<glyph unicode=")" horiz-adv-x="724" d="M37 -512q163 172 253.5 464.5t90.5 651.5t-90.5 651.5t-253.5 464.5h272q153 -187 237.5 -478.5t84.5 -637.5t-84.5 -637.5t-237.5 -478.5h-272z" />
<glyph unicode="*" horiz-adv-x="831" d="M23 1108v158l256 -39q34 -5 44.5 14t-12.5 47l-159 197l135 80l94 -238q8 -23 21.5 -31.5t27 0t21.5 31.5l94 238l137 -80l-164 -197q-22 -28 -11 -47.5t46 -13.5l254 39v-158l-254 39q-35 6 -45.5 -13t12.5 -47l162 -196l-137 -82l-94 238q-12 34 -35 34.5t-35 -34.5 l-94 -238l-135 82l159 196q23 28 12.5 47t-44.5 13z" />
<glyph unicode="+" horiz-adv-x="1216" d="M113 412v213h389v389h213v-389h389v-213h-389v-392h-213v392h-389z" />
<glyph unicode="," horiz-adv-x="657" d="M133 -369l125 658h291l-213 -658h-203z" />
<glyph unicode="-" horiz-adv-x="808" d="M45 412v213h717v-213h-717z" />
<glyph unicode="." horiz-adv-x="651" d="M162 143q0 66 48 115t114 49q67 0 116 -49t49 -115q0 -67 -48.5 -115t-116.5 -48q-66 0 -114 48t-48 115z" />
<glyph unicode="/" horiz-adv-x="1273" d="M4 -410l997 1946h269l-998 -1946h-268z" />
<glyph unicode="0" d="M88 725q0 377 135 564.5t391 187.5t390.5 -187.5t134.5 -564.5q0 -376 -135 -565t-390 -189q-257 0 -391.5 188.5t-134.5 565.5zM373 725q0 -498 241 -498q242 0 242 498t-242 498q-241 0 -241 -498z" />
<glyph unicode="1" d="M252 848v321l344 279h274v-1448h-282v1120z" />
<glyph unicode="2" d="M106 942v66q0 219 134.5 344t365.5 125q218 0 354 -112.5t136 -303.5q0 -114 -44 -206t-147 -198l-395 -405h614v-252h-1013v227l579 588q66 66 95.5 121t29.5 115q0 83 -52 128.5t-145 45.5q-113 0 -171 -61t-58 -181v-70z" />
<glyph unicode="3" d="M90 494h291q2 -125 59.5 -197t180.5 -72q106 0 166.5 60.5t60.5 158.5q0 50 -16.5 89.5t-41.5 62t-58.5 37t-62.5 19.5t-59 5h-47v217h43q86 0 140.5 52t54.5 135q0 74 -51.5 120t-131.5 46q-95 0 -150.5 -63.5t-55.5 -172.5v-12l-287 29q0 220 131.5 344.5t353.5 124.5 q197 0 326 -113t129 -277q0 -113 -58 -191.5t-133 -109.5q112 -30 187.5 -119t75.5 -239q0 -203 -140.5 -330t-369.5 -127q-260 0 -398.5 135t-138.5 388z" />
<glyph unicode="4" d="M57 287v254l531 907h432v-909h154v-252h-154v-287h-283v287h-680zM324 539h413v725z" />
<glyph unicode="5" d="M102 446q0 22 4 58h277v-33q0 -115 64 -180.5t180 -65.5q107 0 167 65.5t60 170.5q0 60 -20.5 104.5t-51.5 70t-78.5 40.5t-91.5 19.5t-100 4.5h-365l58 748h864v-250h-608l-19 -264h166q260 0 395.5 -113.5t135.5 -341.5q0 -232 -141 -370t-377 -138q-235 0 -377 129 t-142 346z" />
<glyph unicode="6" d="M80 487q0 188 131 359l459 602h338l-377 -483q14 2 43 2q199 0 338 -136.5t139 -347.5q0 -141 -74.5 -259.5t-198.5 -185.5t-268 -67q-111 0 -210 41.5t-169 111t-110.5 164.5t-40.5 199zM344 498q-3 -113 68 -193t190 -80q116 0 192 77t78 187q3 117 -70.5 196 t-195.5 79q-115 0 -187 -75t-75 -191z" />
<glyph unicode="7" d="M106 1198v250h1022v-250l-661 -1198h-326l680 1198h-715z" />
<glyph unicode="8" d="M92 422q0 125 59.5 220.5t165.5 150.5q-78 48 -122.5 123.5t-44.5 168.5q0 172 130.5 282t333.5 110q201 0 332 -111t131 -281q0 -92 -43.5 -167.5t-118.5 -124.5q104 -56 164 -151.5t60 -219.5q0 -133 -68.5 -236.5t-187.5 -159t-269 -55.5q-229 0 -375.5 124 t-146.5 327zM375 457q0 -102 68 -167t171 -65q104 0 172 65t68 167q0 103 -67.5 165t-172.5 62q-106 0 -172.5 -62t-66.5 -165zM410 1075q0 -88 58.5 -145.5t145.5 -57.5q86 0 145.5 58t59.5 145q0 85 -59.5 139t-145.5 54q-87 0 -145.5 -54t-58.5 -139z" />
<glyph unicode="9" d="M80 967q0 140 73.5 258t197 185t267.5 67q148 0 271 -70t192.5 -188.5t69.5 -257.5q0 -182 -131 -359l-459 -602h-340l377 483q-14 -2 -43 -2q-130 0 -238 60.5t-172.5 172.5t-64.5 253zM356 961q-2 -117 71.5 -196t195.5 -79q116 0 187.5 74.5t74.5 191.5 q3 112 -68 192.5t-190 80.5q-116 0 -192 -77.5t-79 -186.5z" />
<glyph unicode=":" horiz-adv-x="616" d="M145 143q0 66 48 115t114 49q67 0 116.5 -49t49.5 -115q0 -67 -49 -115t-117 -48q-66 0 -114 48t-48 115zM145 854q0 66 48 114t114 48q68 0 117 -48t49 -114q0 -67 -49 -115.5t-117 -48.5q-66 0 -114 48.5t-48 115.5z" />
<glyph unicode=";" horiz-adv-x="653" d="M104 -369l127 658h289l-211 -658h-205zM193 854q0 66 48.5 114t114.5 48q67 0 115.5 -48t48.5 -114q0 -68 -48 -116t-116 -48q-66 0 -114.5 48.5t-48.5 115.5z" />
<glyph unicode="&#x3c;" horiz-adv-x="1005" d="M113 424v188l782 392v-230l-510 -256l510 -258v-231z" />
<glyph unicode="=" horiz-adv-x="1144" d="M113 190v213h921v-213h-921zM113 631v213h921v-213h-921z" />
<glyph unicode="&#x3e;" horiz-adv-x="1005" d="M113 29v231l510 258l-510 256v230l782 -392v-188z" />
<glyph unicode="?" horiz-adv-x="1087" d="M59 1044q0 190 130 311.5t339 121.5q219 0 352.5 -115.5t133.5 -310.5q0 -40 -5 -76t-12.5 -64.5t-21.5 -56.5t-25.5 -47.5t-31.5 -41t-32.5 -34t-36 -30t-35 -25t-35.5 -23t-31 -20.5q-52 -35 -76.5 -67.5t-24.5 -76.5v-38h-227v86q0 49 11.5 87.5t36.5 67.5t49.5 48.5 t64.5 43.5t62 40t50 45.5t41 69t13 91.5q0 100 -61 156.5t-159 56.5q-101 0 -161 -59.5t-60 -153.5q0 -31 6 -65l-252 14q0 9 -1 30.5t-1 34.5zM371 143q0 67 48.5 114.5t115.5 47.5q66 0 113.5 -47.5t47.5 -114.5q0 -68 -47 -115.5t-114 -47.5q-68 0 -116 48t-48 115z" />
<glyph unicode="@" horiz-adv-x="1806" d="M123 545q0 170 60 318t163.5 253.5t249 166t311.5 60.5q169 0 317 -62t249 -166t159 -243t58 -290q0 -198 -87.5 -307t-250.5 -109q-95 0 -153.5 31.5t-98.5 103.5h-15q-40 -69 -107.5 -107t-152.5 -38q-110 0 -187 57t-77 156q0 175 260 235l221 51v41q0 60 -35.5 91.5 t-97.5 31.5q-61 0 -97.5 -30t-53.5 -97l-183 43q29 100 115 158.5t219 58.5q64 0 119 -15t103 -47t76 -90t28 -136v-203q0 -78 32.5 -114t102.5 -36q82 0 121 61.5t39 190.5q0 171 -77 311.5t-220.5 224t-325.5 83.5q-178 0 -320 -81t-222 -226t-80 -328q0 -172 83.5 -313 t226 -220.5t312.5 -79.5q178 0 338 99l74 -142q-187 -116 -412 -116q-160 0 -305 59.5t-250 161.5t-167 245.5t-62 303.5zM756 383q0 -42 31 -66t81 -24q78 0 126 56.5t48 148.5v47l-153 -45q-75 -23 -104 -49t-29 -68z" />
<glyph unicode="A" horiz-adv-x="1482" d="M16 0l543 1448h367l540 -1448h-313l-109 303h-604l-108 -303h-316zM528 547h428l-213 600z" />
<glyph unicode="B" horiz-adv-x="1280" d="M139 0v1448h477q243 0 368.5 -93t125.5 -276q0 -227 -182 -305q134 -41 203 -129.5t69 -236.5q0 -61 -12.5 -113t-34 -90t-52.5 -69.5t-64 -52t-73.5 -36.5t-76.5 -24.5t-76.5 -14t-70.5 -7t-62 -1.5h-539zM434 252h248q114 0 168.5 45.5t54.5 142.5t-54.5 144t-168.5 47 h-248v-379zM434 856h176q205 0 205 174t-205 174h-176v-348z" />
<glyph unicode="C" horiz-adv-x="1562" d="M76 725q0 220 94.5 391.5t263 266t383.5 94.5q244 0 426.5 -122t261.5 -331l-278 -100q-48 131 -156.5 206.5t-253.5 75.5q-196 0 -321 -133t-125 -348t125 -348t321 -133q146 0 254.5 74.5t155.5 205.5l278 -98q-79 -211 -261.5 -333t-426.5 -122q-215 0 -383.5 95 t-263 267t-94.5 392z" />
<glyph unicode="D" horiz-adv-x="1439" d="M137 0v1448h438q345 0 531 -135q254 -186 254 -588q0 -197 -64.5 -347.5t-189.5 -242.5q-186 -135 -531 -135h-438zM434 260h141q205 0 324 84q164 115 164 381q0 267 -164 379q-122 86 -324 86h-141v-930z" />
<glyph unicode="E" horiz-adv-x="1075" d="M139 0v1448h844v-258h-549v-338h490v-256h-490v-336h549v-260h-844z" />
<glyph unicode="F" horiz-adv-x="1052" d="M139 0v1448h860v-258h-565v-338h490v-256h-490v-596h-295z" />
<glyph unicode="G" horiz-adv-x="1613" d="M76 725q0 220 94.5 391.5t263 266t383.5 94.5q213 0 380.5 -93.5t260.5 -259.5l-258 -137q-58 104 -157.5 161.5t-225.5 57.5q-196 0 -321 -133t-125 -348q0 -217 121 -349t325 -132q150 0 259 80t145 231h-392v236h682v-791h-231v219q-71 -115 -192 -181.5t-287 -66.5 q-210 0 -375 95t-257.5 267t-92.5 392z" />
<glyph unicode="H" horiz-adv-x="1499" d="M139 0v1448h295v-594h631v594h297v-1448h-297v598h-631v-598h-295z" />
<glyph unicode="I" horiz-adv-x="573" d="M139 0v1448h295v-1448h-295z" />
<glyph unicode="J" horiz-adv-x="954" d="M12 80l125 242q115 -76 221 -76q87 0 128.5 54.5t41.5 178.5v969h297v-1024q0 -214 -117.5 -333.5t-310.5 -119.5q-196 0 -385 109z" />
<glyph unicode="K" horiz-adv-x="1411" d="M139 0v1448h295v-571h113l469 571h360l-577 -692l596 -756h-373l-473 621h-115v-621h-295z" />
<glyph unicode="L" horiz-adv-x="923" d="M139 0v1448h295v-1188h465v-260h-760z" />
<glyph unicode="M" horiz-adv-x="1910" d="M90 0l119 1448h436l309 -903l310 903h436l119 -1448h-299l-93 1139l-372 -1139h-201l-373 1139l-92 -1139h-299z" />
<glyph unicode="N" horiz-adv-x="1574" d="M139 0v1448h353l649 -1032v1032h297v-1448h-357l-647 1038v-1038h-295z" />
<glyph unicode="O" horiz-adv-x="1634" d="M76 725q0 220 94.5 391.5t263 266t383.5 94.5t384 -94.5t263.5 -266t94.5 -391.5t-94.5 -392t-263.5 -267t-384 -95t-383.5 95t-263 267t-94.5 392zM371 725q0 -215 125 -348t321 -133q197 0 322 133t125 348t-125 348t-322 133q-196 0 -321 -133t-125 -348z" />
<glyph unicode="P" horiz-adv-x="1232" d="M137 0v1448h479q152 0 252 -26.5t170 -84.5q138 -112 138 -342q0 -141 -54.5 -252.5t-160.5 -169.5q-115 -61 -345 -61h-182v-512h-297zM434 758h139q167 0 228 43q78 54 78 178q0 121 -74 176q-65 47 -232 47h-139v-444z" />
<glyph unicode="Q" horiz-adv-x="1648" d="M76 725q0 220 94.5 391.5t263 266t383.5 94.5t384 -94.5t263.5 -266t94.5 -391.5q0 -308 -181 -514l224 -272l-256 -99l-187 205q-157 -74 -342 -74q-215 0 -383.5 95t-263 267t-94.5 392zM371 725q0 -215 125 -348t321 -133q197 0 322 133t125 348t-125 348t-322 133 q-196 0 -321 -133t-125 -348z" />
<glyph unicode="R" horiz-adv-x="1310" d="M137 0v1448h479q152 0 252 -26.5t170 -84.5q138 -112 138 -342q0 -140 -55 -254t-160 -172q-12 -6 -62 -26l375 -543h-361l-346 530h-133v-530h-297zM434 758h139q167 0 228 43q78 54 78 178q0 121 -74 176q-65 47 -232 47h-139v-444z" />
<glyph unicode="S" horiz-adv-x="1253" d="M29 403l293 62q62 -250 311 -250q110 0 170.5 47t60.5 131q0 31 -10.5 57t-34.5 47t-47 36t-65.5 30.5t-71.5 24.5t-82 24q-60 17 -95.5 28.5t-92 34t-91 43.5t-75.5 55t-64 71.5t-39 90.5t-16 114q0 193 142 310.5t370 117.5q100 0 190 -22t168 -67t134 -122t79 -179 l-266 -61q-37 108 -106 158.5t-181 50.5q-104 0 -167.5 -46.5t-63.5 -123.5q0 -28 9.5 -51.5t32.5 -42t44 -31t62 -26.5t67 -21l78 -21q90 -25 140.5 -41t129 -54.5t121 -81.5t75.5 -116t33 -165q0 -200 -147.5 -321.5t-394.5 -121.5q-239 0 -403.5 114.5t-196.5 317.5z" />
<glyph unicode="T" horiz-adv-x="1040" d="M23 1190v258h993v-258h-348v-1190h-295v1190h-350z" />
<glyph unicode="U" horiz-adv-x="1394" d="M123 514v934h295v-895q0 -160 75.5 -236.5t204.5 -76.5q128 0 203.5 76.5t75.5 236.5v895h297v-934q0 -136 -44 -241t-122.5 -170.5t-182 -98.5t-227.5 -33q-125 0 -228.5 33t-181.5 98.5t-121.5 170.5t-43.5 241z" />
<glyph unicode="V" horiz-adv-x="1484" d="M16 1448h316l411 -1145l410 1145h313l-540 -1448h-367z" />
<glyph unicode="W" horiz-adv-x="2164" d="M31 1448h307l289 -1131l327 1131h256l326 -1133l291 1133h307l-377 -1448h-395l-281 911l-278 -911h-395z" />
<glyph unicode="X" horiz-adv-x="1525" d="M18 0l570 752l-555 696h360l369 -479l371 479h360l-555 -696l569 -752h-370l-375 508l-373 -508h-371z" />
<glyph unicode="Y" horiz-adv-x="1273" d="M2 1448h326l309 -506l309 506h324l-484 -760v-688h-297v684z" />
<glyph unicode="Z" horiz-adv-x="1185" d="M70 0v236l694 954h-694v258h1042v-236l-694 -952h700v-260h-1048z" />
<glyph unicode="[" horiz-adv-x="704" d="M125 -512v2232h524v-200h-274v-1831h274v-201h-524z" />
<glyph unicode="\" horiz-adv-x="1273" d="M4 1536h268l998 -1946h-269z" />
<glyph unicode="]" horiz-adv-x="704" d="M55 -311h275v1831h-275v200h525v-2232h-525v201z" />
<glyph unicode="^" horiz-adv-x="1456" d="M86 319l512 1129h260l512 -1129h-240l-401 885l-403 -885h-240z" />
<glyph unicode="_" horiz-adv-x="1024" d="M0 -35h1024v-213h-1024v213z" />
<glyph unicode="`" horiz-adv-x="759" d="M139 1448h301l181 -291h-248z" />
<glyph unicode="a" horiz-adv-x="1150" d="M76 260q0 66 23.5 119.5t59.5 88t90.5 62t103.5 42.5t112 28l188 43q47 11 71 26.5t24 49.5q0 66 -52 99.5t-129 33.5q-87 0 -141.5 -40t-71.5 -118l-272 41q33 160 160.5 239t328.5 79q224 0 342.5 -97.5t118.5 -281.5v-488q0 -114 19 -159v-27h-281l-12 141 q-50 -78 -144.5 -119.5t-201.5 -41.5q-52 0 -99 9t-91 30t-76 52.5t-51 80t-19 108.5zM358 291q0 -55 38 -85t100 -30q109 0 188.5 85.5t79.5 236.5l-254 -66q-152 -30 -152 -141z" />
<glyph unicode="b" horiz-adv-x="1314" d="M127 0v1536h285v-629q47 70 132.5 108t190.5 38q104 0 195 -37.5t159.5 -105.5t108 -170.5t39.5 -225.5q0 -163 -68.5 -286t-181.5 -185.5t-252 -62.5q-106 0 -191 36.5t-132 104.5v-121h-285zM399 514q0 -138 77 -218.5t200 -80.5q121 0 198.5 80.5t77.5 218.5 q0 139 -77.5 222t-198.5 83q-122 0 -199.5 -83t-77.5 -222z" />
<glyph unicode="c" horiz-adv-x="1216" d="M78 518q0 238 154.5 386.5t402.5 148.5q200 0 336 -100.5t172 -282.5l-262 -25q-23 92 -87.5 139t-162.5 47q-122 0 -196.5 -87t-74.5 -226q0 -140 74.5 -227.5t196.5 -87.5q98 0 162.5 47t87.5 139l262 -24q-36 -182 -173.5 -283.5t-334.5 -101.5q-248 0 -402.5 149.5 t-154.5 388.5z" />
<glyph unicode="d" horiz-adv-x="1314" d="M78 514q0 123 39.5 225.5t108 170.5t159.5 105.5t195 37.5q107 0 193.5 -39t131.5 -109v631h283v-1536h-283v125q-45 -70 -131.5 -107.5t-193.5 -37.5q-139 0 -252 62.5t-181.5 185.5t-68.5 286zM362 514q0 -138 78 -218.5t201 -80.5q121 0 199 80.5t78 218.5 q0 139 -78 222t-199 83q-122 0 -200.5 -83t-78.5 -222z" />
<glyph unicode="e" horiz-adv-x="1216" d="M74 516q0 248 150.5 392.5t396.5 144.5q113 0 207 -33t164.5 -97t109.5 -166t39 -233l-2 -65h-785q10 -121 85.5 -188.5t187.5 -67.5q83 0 142.5 35.5t88.5 105.5l262 -35q-50 -157 -181 -243t-310 -86q-255 0 -405 143.5t-150 392.5zM360 633h500q-10 98 -75.5 154.5 t-163.5 56.5q-106 0 -173.5 -53.5t-87.5 -157.5z" />
<glyph unicode="f" horiz-adv-x="798" d="M39 815v217h207v103q0 98 22 170t60 116t97.5 70t124.5 35.5t152 9.5h56v-225h-56q-32 0 -57.5 -6t-54 -22.5t-44.5 -54t-16 -93.5v-103h228v-217h-228v-815h-284v815h-207z" />
<glyph unicode="g" horiz-adv-x="1282" d="M78 543q0 228 137 369t340 141q108 0 191.5 -41.5t127.5 -112.5v133h283v-1005q0 -275 -140.5 -407t-395.5 -132q-410 0 -533 322l238 98q45 -102 113 -151.5t169 -49.5q136 0 201 78t65 219v170q-44 -66 -131 -106.5t-192 -40.5q-130 0 -237.5 63t-171.5 181.5 t-64 271.5zM350 543q0 -126 77 -207.5t194 -81.5t193.5 81.5t76.5 207.5q0 125 -76 205.5t-194 80.5t-194.5 -80.5t-76.5 -205.5z" />
<glyph unicode="h" horiz-adv-x="1245" d="M125 0v1536h285v-633q124 150 344 150q183 0 279.5 -100t96.5 -294v-659h-284v616q0 109 -53.5 160t-147.5 51q-46 0 -85.5 -13.5t-74.5 -42.5t-55 -82.5t-20 -127.5v-561h-285z" />
<glyph unicode="i" horiz-adv-x="530" d="M102 1356q0 67 48.5 114.5t117.5 47.5q66 0 114 -47.5t48 -114.5q0 -68 -48 -116t-114 -48q-69 0 -117.5 47.5t-48.5 116.5zM123 0v1032h285v-1032h-285z" />
<glyph unicode="j" horiz-adv-x="526" d="M-111 -279q136 0 182 65t46 232v1014h282v-1014q0 -266 -119 -391t-391 -125v219zM94 1356q0 67 48.5 114.5t117.5 47.5q66 0 114 -47.5t48 -114.5q0 -68 -48 -116t-114 -48q-69 0 -117.5 47.5t-48.5 116.5z" />
<glyph unicode="k" horiz-adv-x="1191" d="M125 0v1536h285v-907h53l350 403h320l-431 -483l461 -549h-342l-354 434h-57v-434h-285z" />
<glyph unicode="l" horiz-adv-x="534" d="M125 0v1536h285v-1536h-285z" />
<glyph unicode="m" horiz-adv-x="1847" d="M125 0v1032h285v-121q110 142 303 142q126 0 211.5 -45.5t122.5 -130.5q51 85 135 130.5t192 45.5q167 0 262 -81t95 -224v-748h-283v651q0 86 -48.5 131t-125.5 45q-91 0 -147 -61t-56 -199v-567h-285v651q0 85 -48.5 130.5t-125.5 45.5q-90 0 -146 -61.5t-56 -198.5 v-567h-285z" />
<glyph unicode="n" horiz-adv-x="1245" d="M125 0v1032h285v-117q119 138 327 138q193 0 292 -94.5t99 -268.5v-690h-282v631q0 98 -54.5 147t-144.5 49q-97 0 -161.5 -54t-75.5 -171v-602h-285z" />
<glyph unicode="o" horiz-adv-x="1286" d="M78 518q0 244 156.5 388.5t408.5 146.5q254 -2 410.5 -146t156.5 -389q0 -247 -156.5 -391.5t-410.5 -146.5q-253 2 -409 146.5t-156 391.5zM360 518q0 -140 78 -226.5t205 -86.5t205 86.5t78 226.5q0 137 -78 223t-205 86t-205 -86t-78 -223z" />
<glyph unicode="p" horiz-adv-x="1314" d="M125 -498v1530h285v-121q47 68 132 105t191 37q104 0 195 -37t159.5 -104t108 -169t39.5 -225t-39.5 -225.5t-108 -170t-159.5 -105t-195 -37.5q-106 0 -191 37.5t-132 107.5v-623h-285zM397 518q0 -138 77.5 -220.5t199.5 -82.5q121 0 198.5 83t77.5 220 q0 138 -77.5 219.5t-198.5 81.5q-122 0 -199.5 -81t-77.5 -220z" />
<glyph unicode="q" horiz-adv-x="1314" d="M80 518q0 123 39.5 225t108 169t159.5 104t195 37q108 0 194 -37.5t131 -106.5v123h283v-1530h-283v625q-45 -70 -131.5 -108.5t-193.5 -38.5q-104 0 -195 37.5t-159.5 105t-108 170t-39.5 225.5zM365 518q0 -137 78 -220t200 -83q121 0 199 83t78 220q0 138 -78 219.5 t-199 81.5q-122 0 -200 -81.5t-78 -219.5z" />
<glyph unicode="r" horiz-adv-x="802" d="M125 0v1032h285v-147q49 77 140 122.5t210 45.5v-265q-187 0 -268.5 -70t-81.5 -245v-473h-285z" />
<glyph unicode="s" horiz-adv-x="1050" d="M76 270l235 66q45 -152 228 -152q68 0 111.5 26.5t43.5 78.5q0 26 -13 46t-32 33.5t-51.5 25t-60 18t-70.5 14.5q-89 17 -151 38t-113.5 55.5t-77 87t-25.5 124.5q0 151 113 236.5t303 85.5q160 0 277.5 -66.5t152.5 -200.5l-248 -55q-47 119 -192 119 q-67 0 -107.5 -24.5t-40.5 -67.5q0 -24 16 -42.5t53 -33t67 -22.5t88 -21q99 -21 163 -43t118 -58.5t79 -91t25 -131.5q0 -86 -34 -151.5t-93 -105t-132.5 -59t-158.5 -19.5q-189 0 -317.5 74.5t-155.5 215.5z" />
<glyph unicode="t" horiz-adv-x="825" d="M39 815v217h80q77 0 117 40.5t40 144.5v147h250v-332h224v-217h-224v-448q0 -71 34.5 -106.5t96.5 -35.5h93v-225h-191q-152 0 -234.5 85t-82.5 241v489h-203z" />
<glyph unicode="u" horiz-adv-x="1247" d="M115 342v690h282v-631q0 -98 54.5 -146t144.5 -48q105 0 172 63t68 201v561h284v-1032h-284v119q-117 -139 -328 -139q-193 0 -293 94.5t-100 267.5z" />
<glyph unicode="v" horiz-adv-x="1191" d="M29 1032h307l260 -696l258 696h309l-440 -1032h-254z" />
<glyph unicode="w" horiz-adv-x="1822" d="M33 1032h301l219 -688l244 688h229l244 -692l219 692h301l-363 -1032h-290l-226 680l-223 -680h-293z" />
<glyph unicode="x" horiz-adv-x="1277" d="M31 0l436 518l-436 514h356l252 -330l252 330h354l-438 -516l438 -516h-354l-252 326l-250 -326h-358z" />
<glyph unicode="y" horiz-adv-x="1191" d="M29 1032h307l260 -694l258 694h309l-649 -1530h-309l244 549z" />
<glyph unicode="z" horiz-adv-x="1003" d="M49 0l475 815h-434v217h860l-477 -815h457v-217h-881z" />
<glyph unicode="{" horiz-adv-x="708" d="M53 514v180q66 18 94.5 38.5t42 68.5t13.5 147v488q0 124 86.5 204t236.5 80h127v-202h-73q-47 0 -78 -29.5t-31 -85.5v-449q0 -143 -37.5 -227t-140.5 -123q103 -39 140.5 -123t37.5 -227v-449q0 -56 31 -85t78 -29h73v-203h-127q-150 0 -236.5 80.5t-86.5 204.5v489 q0 74 -5.5 116.5t-24.5 70t-44.5 40t-75.5 25.5z" />
<glyph unicode="|" horiz-adv-x="702" d="M209 -307v1843h285v-1843h-285z" />
<glyph unicode="}" horiz-adv-x="708" d="M55 -309h74q49 0 80 29t31 85v449q0 144 36.5 227.5t139.5 122.5q-102 39 -139 123t-37 227v449q0 56 -31.5 85.5t-79.5 29.5h-74v202h127q150 0 237 -80t87 -204v-488q0 -75 5.5 -117.5t24.5 -70.5t44 -40t75 -26v-180q-50 -13 -75.5 -25.5t-44 -40t-24 -70t-5.5 -116.5 v-489q0 -124 -87 -204.5t-237 -80.5h-127v203z" />
<glyph unicode="~" horiz-adv-x="1275" d="M113 324q0 183 90 292t256 109q88 0 147 -35.5t115 -111.5q18 -24 29.5 -37.5t33.5 -26t47 -12.5q61 0 101.5 55t36.5 145h194q0 -172 -84 -282.5t-231 -110.5q-38 0 -74 9t-60.5 20.5t-53.5 32.5t-42 33t-36 35.5t-27 27.5q-56 59 -102 59q-68 0 -104 -58.5t-38 -143.5 h-198z" />
<glyph unicode="&#xa1;" horiz-adv-x="557" d="M115 887q0 67 47.5 115.5t113.5 48.5q69 0 117.5 -48t48.5 -116t-48.5 -116t-117.5 -48q-66 0 -113.5 48.5t-47.5 115.5zM133 -420l31 983h225l31 -983h-287z" />
<glyph unicode="&#xa2;" horiz-adv-x="1216" d="M78 731q0 215 128.5 359t340.5 170v188h168v-186q169 -19 282 -117t146 -262l-262 -25q-23 92 -87.5 139t-162.5 47q-122 0 -196.5 -87t-74.5 -226q0 -140 74.5 -227.5t196.5 -87.5q98 0 162.5 47t87.5 139l262 -24q-32 -161 -146.5 -260.5t-281.5 -120.5v-197h-168v199 q-212 26 -340.5 170.5t-128.5 361.5z" />
<glyph unicode="&#xa3;" horiz-adv-x="1337" d="M137 0v168l66 12q84 21 84 117v301h-150v203h150v170q0 226 134.5 364t352.5 138q67 0 128 -13t116 -43t95 -73.5t63.5 -108.5t23.5 -145q0 -26 -4 -62l-238 -18q5 23 5 49q0 90 -51 136t-144 46q-107 0 -165 -67t-58 -203v-170h295v-203h-295v-356h631v-242h-1039z" />
<glyph unicode="&#xa4;" horiz-adv-x="1384" d="M143 338l138 135q-76 116 -76 256q0 142 76 258l-136 135l150 158l139 -139q116 76 260 76q141 0 254 -76l139 139l152 -154l-135 -137q74 -118 74 -258t-74 -258l135 -135l-152 -158l-139 139q-113 -73 -256 -73q-141 0 -260 73l-139 -139zM420 727q0 -115 80.5 -191.5 t191.5 -76.5q115 0 193 81.5t78 192.5q0 112 -79 190t-192 78t-192.5 -80.5t-79.5 -193.5z" />
<glyph unicode="&#xa5;" horiz-adv-x="1273" d="M2 1448h326l309 -502l309 502h324l-385 -604h243v-213h-342v-228h342v-213h-342v-190h-297v190h-344v213h344v228h-344v213h244z" />
<glyph unicode="&#xa6;" horiz-adv-x="702" d="M209 -307v737h285v-737h-285zM209 799v737h285v-737h-285z" />
<glyph unicode="&#xa7;" horiz-adv-x="1277" d="M141 610q0 151 86 246q-86 83 -86 217q0 179 129 282t338 103q93 0 174.5 -19t152 -58.5t120 -107.5t69.5 -159l-229 -57q-24 107 -92 157t-182 50q-106 0 -172 -48.5t-66 -136.5q0 -35 16 -63t41.5 -47.5t65.5 -36t79.5 -28.5t92.5 -26q11 -3 16 -4q56 -15 90 -26 t86.5 -30.5t85 -39t70.5 -50t60 -64.5t36.5 -81t14.5 -102q0 -150 -86 -245q86 -83 86 -218q0 -179 -129 -283t-338 -104q-93 0 -174.5 19.5t-152 59t-120 107.5t-69.5 158l227 60q26 -108 93.5 -158.5t180.5 -50.5q108 0 174 48t66 138q0 35 -16 63t-41.5 47.5t-65.5 36 t-79.5 28.5t-92.5 26q-11 3 -16 4q-56 15 -90 26t-86.5 30.5t-85 39t-70.5 50t-60 64.5t-36.5 81t-14.5 102zM387 623q0 -23 6.5 -43.5t14.5 -36.5t27 -32t32.5 -26.5t42.5 -23t45.5 -19.5t53.5 -18.5t53.5 -16t58.5 -16.5q81 -18 127 -43q43 46 43 121q0 34 -11 61.5 t-36 49t-49.5 37t-68 31t-74 25t-84.5 24.5q-3 1 -4 1t-3 1t-4 1q-85 19 -127 43q-43 -46 -43 -120z" />
<glyph unicode="&#xa8;" horiz-adv-x="1028" d="M139 1356q0 67 48.5 114.5t117.5 47.5q66 0 114 -47.5t48 -114.5q0 -68 -47.5 -116t-114.5 -48q-69 0 -117.5 47.5t-48.5 116.5zM561 1356q0 67 49 114.5t117 47.5q67 0 115.5 -47.5t48.5 -114.5q0 -68 -48.5 -116t-115.5 -48q-68 0 -117 48t-49 116z" />
<glyph unicode="&#xa9;" horiz-adv-x="1736" d="M123 725q0 151 59 288.5t159 237t238 158.5t289 59q202 0 373.5 -99.5t272 -270.5t100.5 -373q0 -151 -59.5 -289t-159.5 -238t-238 -159t-289 -59t-289 59t-238 159t-159 238t-59 289zM272 725q0 -122 47 -232.5t126.5 -190t190 -126.5t232.5 -47t232.5 47t190 126.5 t126.5 190t47 232.5t-47 232.5t-126.5 190t-190 126.5t-232.5 47t-232.5 -47t-190 -126.5t-126.5 -190t-47 -232.5zM483 725q0 160 112 271.5t273 111.5q93 0 174 -41t136 -113l-121 -88q-31 44 -81 69.5t-108 25.5q-99 0 -167 -68.5t-68 -167.5q0 -100 67.5 -168t167.5 -68 q57 0 107 25.5t82 67.5l121 -86q-55 -72 -136 -114t-174 -42q-161 0 -273 112t-112 273z" />
<glyph unicode="&#xaa;" horiz-adv-x="903" d="M86 1141q0 133 88.5 226t214.5 93q130 0 209 -98v86h160v-614h-160v86q-80 -99 -209 -99q-126 0 -214.5 93.5t-88.5 226.5zM244 1141q0 -73 52 -125.5t124 -52.5q74 0 126 52.5t52 125.5q0 75 -52 126.5t-126 51.5q-72 0 -124 -51.5t-52 -126.5z" />
<glyph unicode="&#xab;" horiz-adv-x="1138" d="M57 518l312 377h229l-311 -377l311 -377h-229zM539 518l311 377h231l-311 -377l311 -377h-231z" />
<glyph unicode="&#xac;" horiz-adv-x="1556" d="M113 647v230h1333v-721h-229v491h-1104z" />
<glyph unicode="&#xad;" horiz-adv-x="808" d="M45 412v213h717v-213h-717z" />
<glyph unicode="&#xae;" horiz-adv-x="884" d="M23 1051q0 173 123 295t296 122q172 0 296 -122t124 -295q0 -172 -124 -296t-296 -124q-173 0 -296 124t-123 296zM111 1051q0 -138 96.5 -234t234.5 -96q137 0 233.5 96t96.5 234t-96 234.5t-234 96.5t-234.5 -96.5t-96.5 -234.5zM279 823v453h210q57 0 95.5 -38.5 t38.5 -98.5q0 -80 -70 -117l84 -199h-105l-71 185h-88v-185h-94zM373 1087h96q28 0 43.5 14.5t15.5 37.5q0 25 -15 40t-44 15h-96v-107z" />
<glyph unicode="&#xaf;" horiz-adv-x="839" d="M139 1204v182h563v-182h-563z" />
<glyph unicode="&#xb0;" horiz-adv-x="917" d="M152 1161q0 129 89.5 218t217.5 89t217.5 -89t89.5 -218t-89.5 -218t-217.5 -89t-217.5 89t-89.5 218zM311 1161q0 -63 42.5 -106t105.5 -43t105 43t42 106t-42 106.5t-105 43.5t-105.5 -43.5t-42.5 -106.5z" />
<glyph unicode="&#xb1;" horiz-adv-x="1216" d="M113 27v213h991v-213h-991zM113 657v213h389v297h213v-297h389v-213h-389v-299h-213v299h-389z" />
<glyph unicode="&#xb2;" horiz-adv-x="708" d="M51 1391v39q0 131 80 205.5t219 74.5q131 0 212 -67.5t81 -182.5q0 -67 -26.5 -122.5t-88.5 -118.5l-237 -244h368v-150h-606v136l346 354q76 73 76 139q0 51 -31.5 78t-87.5 27q-137 0 -137 -144v-43z" />
<glyph unicode="&#xb3;" horiz-adv-x="720" d="M43 1120h174q3 -159 145 -159q63 0 99.5 36.5t36.5 94.5q0 37 -14 64t-37.5 39.5t-45.5 18t-45 5.5h-28v131h24q53 0 85 30.5t32 81.5q0 44 -30.5 71.5t-78.5 27.5q-57 0 -89.5 -38t-32.5 -104v-8l-172 19q0 132 78 206t212 74q118 0 195.5 -67.5t77.5 -165.5 q0 -66 -35.5 -115t-79.5 -66q67 -17 112.5 -70.5t45.5 -144.5q0 -122 -84 -197t-223 -75q-155 0 -238.5 80t-83.5 231z" />
<glyph unicode="&#xb4;" horiz-adv-x="759" d="M139 1157l180 291h302l-234 -291h-248z" />
<glyph unicode="&#xb5;" horiz-adv-x="1245" d="M115 -498v1530h282v-631q0 -98 53.5 -146t143.5 -48q106 0 173 63t67 201v561h284v-1032h-268l-12 125q-54 -70 -140 -107.5t-192 -37.5q-65 0 -109 8v-486h-282z" />
<glyph unicode="&#xb6;" horiz-adv-x="1202" d="M100 1106q0 165 97 253.5t268 88.5h184v-1755h-145v1069h-39q-171 0 -268 89.5t-97 254.5zM846 -307v1755h147v-1755h-147z" />
<glyph unicode="&#xb7;" horiz-adv-x="700" d="M182 725q0 67 50 117.5t118 50.5q65 0 116.5 -50.5t51.5 -117.5q0 -69 -51 -118.5t-117 -49.5q-68 0 -118 49t-50 119z" />
<glyph unicode="&#xb8;" horiz-adv-x="751" d="M139 -360l156 43q20 -56 84 -56q37 0 62.5 22t25.5 60t-24.5 59t-61.5 21q-51 0 -74 -33l-133 58l156 264l137 -51l-92 -144q30 6 55 6q84 0 134 -50t50 -130q0 -90 -64.5 -150.5t-164.5 -60.5q-101 0 -162.5 39t-83.5 103z" />
<glyph unicode="&#xb9;" horiz-adv-x="503" d="M20 1333v193l207 168h164v-869h-170v670z" />
<glyph unicode="&#xba;" horiz-adv-x="827" d="M74 1149q0 134 99 226.5t241 92.5t241 -92.5t99 -226.5t-99 -227t-241 -93t-241 93t-99 227zM233 1149q0 -74 53 -127t128 -53q74 0 127 53.5t53 126.5q0 75 -53 127.5t-127 52.5q-75 0 -128 -52.5t-53 -127.5z" />
<glyph unicode="&#xbb;" horiz-adv-x="1140" d="M59 141l312 377l-312 377h230l311 -377l-311 -377h-230zM543 141l311 377l-311 377h227l311 -377l-311 -377h-227z" />
<glyph unicode="&#xbc;" horiz-adv-x="1601" d="M20 1087v193l207 168h164v-868h-170v669zM221 0l817 1448h174l-817 -1448h-174zM887 172v152l317 544h260v-544h92v-152h-92v-172h-170v172h-407zM1047 324h247v434z" />
<glyph unicode="&#xbd;" horiz-adv-x="1636" d="M20 1087v193l207 168h164v-868h-170v669zM221 0l817 1448h174l-817 -1448h-174zM979 565v39q0 132 80.5 207.5t218.5 75.5q131 0 212 -68t81 -182q0 -69 -26.5 -124.5t-88.5 -117.5l-235 -243h366v-152h-606v135l346 354q76 73 76 142q0 49 -31.5 76.5t-87.5 27.5 q-67 0 -102 -37t-35 -108v-41z" />
<glyph unicode="&#xbe;" horiz-adv-x="1820" d="M43 874h174q3 -159 145 -159q63 0 99.5 36.5t36.5 94.5q0 37 -14 64t-37.5 39.5t-45.5 18t-45 5.5h-28v131h24q53 0 85 31t32 82q0 44 -30.5 71t-78.5 27q-57 0 -89.5 -37.5t-32.5 -103.5v-9l-172 19q0 132 78 206t212 74q118 0 195.5 -67.5t77.5 -165.5 q0 -66 -35.5 -114.5t-79.5 -65.5q67 -17 112.5 -70.5t45.5 -144.5q0 -122 -84 -197.5t-223 -75.5q-155 0 -238.5 80t-83.5 231zM438 0l817 1448h175l-818 -1448h-174zM1106 172v152l317 544h260v-544h93v-152h-93v-172h-170v172h-407zM1266 324h247v434z" />
<glyph unicode="&#xbf;" horiz-adv-x="1087" d="M59 -18q0 40 5 76t12.5 64.5t21.5 56t26 47.5t31 41t33 34t36 30t34.5 25t34.5 22.5t31 20.5q53 35 77.5 67t24.5 77v39h227v-86q0 -49 -12 -87.5t-37.5 -68t-50 -49t-64.5 -43.5q-32 -19 -49 -30.5t-42 -35t-38.5 -46t-23.5 -57.5t-10 -77q0 -101 59.5 -157t157.5 -56 q101 0 162 60t61 155q0 37 -8 64l252 -15q4 -36 4 -65q0 -190 -130 -311t-341 -121q-217 0 -350.5 115.5t-133.5 310.5zM375 891q0 67 47.5 114.5t114.5 47.5q69 0 116 -47t47 -115q0 -69 -47.5 -116.5t-115.5 -47.5q-67 0 -114.5 47.5t-47.5 116.5z" />
<glyph unicode="&#xc0;" horiz-adv-x="1482" d="M16 0l543 1448h367l540 -1448h-313l-109 303h-604l-108 -303h-316zM395 1788h299l172 -279h-248zM528 547h428l-213 600z" />
<glyph unicode="&#xc1;" horiz-adv-x="1482" d="M16 0l543 1448h367l540 -1448h-313l-109 303h-604l-108 -303h-316zM528 547h428l-213 600zM621 1509l170 279h301l-224 -279h-247z" />
<glyph unicode="&#xc2;" horiz-adv-x="1482" d="M16 0l543 1448h367l540 -1448h-313l-109 303h-604l-108 -303h-316zM385 1520l197 268h323l197 -268h-232l-127 139l-127 -139h-231zM528 547h428l-213 600z" />
<glyph unicode="&#xc3;" horiz-adv-x="1482" d="M16 0l543 1448h367l540 -1448h-313l-109 303h-604l-108 -303h-316zM401 1524q0 128 58.5 208t158.5 80q44 0 81 -16t55 -32t43 -44q16 -20 25.5 -29.5t26.5 -18.5t36 -9q61 0 61 135h139q0 -126 -58 -207.5t-161 -81.5q-44 0 -81 16.5t-54 33t-39 43.5q-17 19 -27 29 t-26.5 18t-34.5 8q-65 0 -65 -133h-138zM528 547h428l-213 600z" />
<glyph unicode="&#xc4;" horiz-adv-x="1482" d="M16 0l543 1448h367l540 -1448h-313l-109 303h-604l-108 -303h-316zM367 1694q0 67 48 114t117 47q66 0 114 -47t48 -114q0 -69 -48 -117.5t-114 -48.5q-69 0 -117 48.5t-48 117.5zM528 547h428l-213 600zM788 1694q0 67 49 114t117 47q67 0 115.5 -47t48.5 -114 q0 -68 -49 -117t-115 -49q-68 0 -117 48.5t-49 117.5z" />
<glyph unicode="&#xc5;" horiz-adv-x="1482" d="M16 0l543 1448h367l540 -1448h-313l-109 303h-604l-108 -303h-316zM473 1765q0 115 77 187.5t191 72.5q113 0 190 -72.5t77 -187.5t-77 -187.5t-190 -72.5t-190.5 72.5t-77.5 187.5zM528 547h428l-213 600zM614 1765q0 -57 36 -93t91 -36t93 36.5t38 92.5t-37.5 92.5 t-93.5 36.5q-55 0 -91 -36t-36 -93z" />
<glyph unicode="&#xc6;" horiz-adv-x="1853" d="M16 0l543 1448h1202v-260h-563v-334h488v-260h-488v-334h563v-260h-860v303h-461l-108 -303h-316zM524 547h377v641h-143z" />
<glyph unicode="&#xc7;" horiz-adv-x="1562" d="M76 725q0 220 94.5 391.5t263 266t383.5 94.5q244 0 426.5 -122t261.5 -331l-278 -100q-48 131 -156.5 206.5t-253.5 75.5q-196 0 -321 -133t-125 -348t125 -348t321 -133q146 0 254.5 74.5t155.5 205.5l278 -98q-74 -198 -239.5 -318t-388.5 -135l-58 -90q30 6 55 6 q84 0 134.5 -50t50.5 -130q0 -90 -65 -150.5t-165 -60.5q-101 0 -162 39t-83 103l155 43q20 -56 84 -56q37 0 62.5 22t25.5 60t-24.5 59t-61.5 21q-50 0 -73 -33l-134 58l97 163q-286 34 -462.5 238.5t-176.5 509.5z" />
<glyph unicode="&#xc8;" horiz-adv-x="1075" d="M139 0v1448h844v-258h-549v-338h490v-256h-490v-336h549v-260h-844zM225 1788h299l172 -279h-247z" />
<glyph unicode="&#xc9;" horiz-adv-x="1075" d="M139 0v1448h844v-258h-549v-338h490v-256h-490v-336h549v-260h-844zM449 1509l169 279h302l-224 -279h-247z" />
<glyph unicode="&#xca;" horiz-adv-x="1075" d="M139 0v1448h844v-258h-549v-338h490v-256h-490v-336h549v-260h-844zM213 1520l197 268h323l197 -268h-232l-127 139l-127 -139h-231z" />
<glyph unicode="&#xcb;" horiz-adv-x="1075" d="M139 0v1448h844v-258h-549v-338h490v-256h-490v-336h549v-260h-844zM197 1694q0 67 48 114t117 47q66 0 114 -47t48 -114q0 -69 -48 -117.5t-114 -48.5q-69 0 -117 48.5t-48 117.5zM618 1694q0 67 49 114t117 47q67 0 115.5 -47t48.5 -114q0 -68 -49 -117t-115 -49 q-68 0 -117 48.5t-49 117.5z" />
<glyph unicode="&#xcc;" horiz-adv-x="573" d="M-66 1788h302l172 -279h-248zM139 0v1448h295v-1448h-295z" />
<glyph unicode="&#xcd;" horiz-adv-x="573" d="M139 0v1448h295v-1448h-295zM162 1509l170 279h301l-223 -279h-248z" />
<glyph unicode="&#xce;" horiz-adv-x="573" d="M-76 1520l199 268h323l197 -268h-231l-127 139l-127 -139h-234zM139 0v1448h295v-1448h-295z" />
<glyph unicode="&#xcf;" horiz-adv-x="573" d="M-94 1694q0 67 49.5 114t118.5 47q66 0 114 -47t48 -114q0 -69 -48 -117.5t-114 -48.5q-69 0 -118.5 48.5t-49.5 117.5zM139 0v1448h295v-1448h-295zM330 1694q0 67 49 114t117 47q67 0 115 -47t48 -114q0 -69 -48.5 -117.5t-114.5 -48.5q-68 0 -117 48.5t-49 117.5z" />
<glyph unicode="&#xd0;" horiz-adv-x="1439" d="M-18 639v174h155v635h438q345 0 531 -135q254 -186 254 -588q0 -197 -64.5 -347.5t-189.5 -242.5q-186 -135 -531 -135h-438v639h-155zM434 260h141q205 0 324 84q164 115 164 381q0 267 -164 379q-122 86 -324 86h-141v-377h246v-174h-246v-379z" />
<glyph unicode="&#xd1;" horiz-adv-x="1574" d="M139 0v1448h353l649 -1032v1032h297v-1448h-357l-647 1038v-1038h-295zM451 1524q0 128 58.5 208t158.5 80q44 0 81 -16.5t54.5 -32t42.5 -43.5q16 -20 25.5 -29.5t26.5 -18.5t36 -9q61 0 61 135h140q0 -126 -58.5 -207.5t-161.5 -81.5q-44 0 -81 16.5t-54 33t-39 43.5 q-17 19 -27 29t-26.5 18t-34.5 8q-65 0 -65 -133h-137z" />
<glyph unicode="&#xd2;" horiz-adv-x="1634" d="M76 725q0 220 94.5 391.5t263 266t383.5 94.5t384 -94.5t263.5 -266t94.5 -391.5t-94.5 -392t-263.5 -267t-384 -95t-383.5 95t-263 267t-94.5 392zM371 725q0 -215 125 -348t321 -133q197 0 322 133t125 348t-125 348t-322 133q-196 0 -321 -133t-125 -348zM471 1788 h299l172 -279h-248z" />
<glyph unicode="&#xd3;" horiz-adv-x="1634" d="M76 725q0 220 94.5 391.5t263 266t383.5 94.5t384 -94.5t263.5 -266t94.5 -391.5t-94.5 -392t-263.5 -267t-384 -95t-383.5 95t-263 267t-94.5 392zM371 725q0 -215 125 -348t321 -133q197 0 322 133t125 348t-125 348t-322 133q-196 0 -321 -133t-125 -348zM694 1509 l170 279h301l-223 -279h-248z" />
<glyph unicode="&#xd4;" horiz-adv-x="1634" d="M76 725q0 220 94.5 391.5t263 266t383.5 94.5t384 -94.5t263.5 -266t94.5 -391.5t-94.5 -392t-263.5 -267t-384 -95t-383.5 95t-263 267t-94.5 392zM371 725q0 -215 125 -348t321 -133q197 0 322 133t125 348t-125 348t-322 133q-196 0 -321 -133t-125 -348zM459 1520 l196 268h324l197 -268h-232l-127 139l-127 -139h-231z" />
<glyph unicode="&#xd5;" horiz-adv-x="1634" d="M76 725q0 220 94.5 391.5t263 266t383.5 94.5t384 -94.5t263.5 -266t94.5 -391.5t-94.5 -392t-263.5 -267t-384 -95t-383.5 95t-263 267t-94.5 392zM371 725q0 -215 125 -348t321 -133q197 0 322 133t125 348t-125 348t-322 133q-196 0 -321 -133t-125 -348zM475 1524 q0 128 58.5 208t158.5 80q44 0 81 -16.5t54.5 -32t42.5 -43.5q16 -20 25.5 -29.5t26.5 -18.5t36 -9q62 0 62 135h139q0 -126 -58 -207.5t-161 -81.5q-44 0 -81 16.5t-54 33t-39 43.5q-17 19 -27 29t-26.5 18t-34.5 8q-33 0 -49.5 -36.5t-16.5 -96.5h-137z" />
<glyph unicode="&#xd6;" horiz-adv-x="1634" d="M76 725q0 220 94.5 391.5t263 266t383.5 94.5t384 -94.5t263.5 -266t94.5 -391.5t-94.5 -392t-263.5 -267t-384 -95t-383.5 95t-263 267t-94.5 392zM371 725q0 -215 125 -348t321 -133q197 0 322 133t125 348t-125 348t-322 133q-196 0 -321 -133t-125 -348zM442 1694 q0 67 48.5 114t117.5 47q66 0 114 -47t48 -114q0 -69 -48 -117.5t-114 -48.5q-69 0 -117.5 48.5t-48.5 117.5zM864 1694q0 67 49 114t117 47q67 0 115.5 -47t48.5 -114q0 -68 -49 -117t-115 -49q-68 0 -117 48.5t-49 117.5z" />
<glyph unicode="&#xd7;" horiz-adv-x="1075" d="M113 242l276 276l-276 275l149 151l277 -274l276 274l150 -151l-277 -275l277 -276l-150 -152l-276 277l-277 -277z" />
<glyph unicode="&#xd8;" horiz-adv-x="1634" d="M76 725q0 220 94.5 391.5t263 266t383.5 94.5q210 0 383 -95l119 172l108 -65l-122 -178q121 -102 187.5 -252.5t66.5 -333.5q0 -220 -94.5 -392t-263.5 -267t-384 -95q-211 0 -381 95l-119 -170l-108 65l123 176q-122 101 -189 252t-67 336zM371 725q0 -217 127 -350 l540 776q-94 55 -221 55q-196 0 -321 -133t-125 -348zM598 297q95 -53 219 -53q197 0 322 133t125 348q0 213 -125 348z" />
<glyph unicode="&#xd9;" horiz-adv-x="1394" d="M123 514v934h295v-895q0 -160 75.5 -236.5t204.5 -76.5q128 0 203.5 76.5t75.5 236.5v895h297v-934q0 -136 -44 -241t-122.5 -170.5t-182 -98.5t-227.5 -33q-125 0 -228.5 33t-181.5 98.5t-121.5 170.5t-43.5 241zM348 1788h299l172 -279h-248z" />
<glyph unicode="&#xda;" horiz-adv-x="1394" d="M123 514v934h295v-895q0 -160 75.5 -236.5t204.5 -76.5q128 0 203.5 76.5t75.5 236.5v895h297v-934q0 -136 -44 -241t-122.5 -170.5t-182 -98.5t-227.5 -33q-125 0 -228.5 33t-181.5 98.5t-121.5 170.5t-43.5 241zM573 1509l170 279h301l-223 -279h-248z" />
<glyph unicode="&#xdb;" horiz-adv-x="1394" d="M123 514v934h295v-895q0 -160 75.5 -236.5t204.5 -76.5q128 0 203.5 76.5t75.5 236.5v895h297v-934q0 -136 -44 -241t-122.5 -170.5t-182 -98.5t-227.5 -33q-125 0 -228.5 33t-181.5 98.5t-121.5 170.5t-43.5 241zM338 1520l197 268h323l197 -268h-232l-127 139 l-127 -139h-231z" />
<glyph unicode="&#xdc;" horiz-adv-x="1394" d="M123 514v934h295v-895q0 -160 75.5 -236.5t204.5 -76.5q128 0 203.5 76.5t75.5 236.5v895h297v-934q0 -136 -44 -241t-122.5 -170.5t-182 -98.5t-227.5 -33q-125 0 -228.5 33t-181.5 98.5t-121.5 170.5t-43.5 241zM319 1694q0 67 48.5 114t117.5 47q66 0 114 -47t48 -114 q0 -69 -48 -117.5t-114 -48.5q-69 0 -117.5 48.5t-48.5 117.5zM741 1694q0 67 49 114t117 47q67 0 115.5 -47t48.5 -114q0 -68 -48.5 -117t-115.5 -49q-68 0 -117 48.5t-49 117.5z" />
<glyph unicode="&#xdd;" horiz-adv-x="1273" d="M2 1448h326l309 -506l309 506h324l-484 -760v-688h-297v684zM514 1509l170 279h301l-223 -279h-248z" />
<glyph unicode="&#xde;" horiz-adv-x="1232" d="M137 0v1448h297v-199h182q286 0 422 -112q138 -112 138 -340q0 -141 -54.5 -252.5t-160.5 -169.5q-120 -64 -345 -64h-182v-311h-297zM434 559h139q170 0 228 43q78 50 78 178q0 121 -74 176q-63 45 -232 45h-139v-442z" />
<glyph unicode="&#xdf;" horiz-adv-x="1445" d="M125 0v928q0 628 629 628q234 0 371 -108.5t137 -282.5q0 -37 -6.5 -69.5t-20.5 -58t-28.5 -45.5t-39 -37t-42 -28.5t-48.5 -24t-47.5 -18.5t-48.5 -16q-35 -13 -48.5 -18.5t-38.5 -18t-35 -22t-19 -24.5t-9 -33t9.5 -33t21.5 -24t40 -18.5t47.5 -14.5t60.5 -15 q94 -21 156.5 -43.5t115 -59.5t77.5 -92.5t25 -132.5q0 -87 -34 -153.5t-93.5 -106.5t-133.5 -59.5t-160 -19.5q-191 0 -321 74t-157 216l236 66q45 -160 223 -160q73 0 120.5 28t47.5 85q0 28 -13.5 50.5t-31 36t-52 26t-58 18t-66.5 14.5q-89 18 -147.5 38.5t-106.5 53.5 t-70 82t-22 117q0 41 9.5 76.5t22.5 61t38 50t43.5 39t53 31.5t52.5 24.5t55 22.5q44 19 68 31.5t52.5 32.5t41 43.5t12.5 52.5q0 66 -61.5 103.5t-177.5 37.5q-66 0 -118 -13.5t-88 -35.5t-61.5 -57t-40 -70.5t-23 -84.5t-11 -90.5t-2.5 -96.5v-883h-285z" />
<glyph unicode="&#xe0;" horiz-adv-x="1150" d="M76 260q0 66 23.5 119.5t59.5 88t90.5 62t103.5 42.5t112 28l188 43q47 11 71 26.5t24 49.5q0 66 -52 99.5t-129 33.5q-87 0 -141.5 -40t-71.5 -118l-272 41q33 160 160.5 239t328.5 79q224 0 342.5 -97.5t118.5 -281.5v-488q0 -114 19 -159v-27h-281l-12 141 q-50 -78 -144.5 -119.5t-201.5 -41.5q-52 0 -99 9t-91 30t-76 52.5t-51 80t-19 108.5zM231 1448h301l181 -291h-248zM358 291q0 -55 38 -85t100 -30q109 0 188.5 85.5t79.5 236.5l-254 -66q-152 -30 -152 -141z" />
<glyph unicode="&#xe1;" horiz-adv-x="1150" d="M76 260q0 66 23.5 119.5t59.5 88t90.5 62t103.5 42.5t112 28l188 43q47 11 71 26.5t24 49.5q0 66 -52 99.5t-129 33.5q-87 0 -141.5 -40t-71.5 -118l-272 41q33 160 160.5 239t328.5 79q224 0 342.5 -97.5t118.5 -281.5v-488q0 -114 19 -159v-27h-281l-12 141 q-50 -78 -144.5 -119.5t-201.5 -41.5q-52 0 -99 9t-91 30t-76 52.5t-51 80t-19 108.5zM358 291q0 -55 38 -85t100 -30q109 0 188.5 85.5t79.5 236.5l-254 -66q-152 -30 -152 -141zM459 1157l180 291h301l-233 -291h-248z" />
<glyph unicode="&#xe2;" horiz-adv-x="1150" d="M76 260q0 66 23.5 119.5t59.5 88t90.5 62t103.5 42.5t112 28l188 43q47 11 71 26.5t24 49.5q0 66 -52 99.5t-129 33.5q-87 0 -141.5 -40t-71.5 -118l-272 41q33 160 160.5 239t328.5 79q224 0 342.5 -97.5t118.5 -281.5v-488q0 -114 19 -159v-27h-281l-12 141 q-50 -78 -144.5 -119.5t-201.5 -41.5q-52 0 -99 9t-91 30t-76 52.5t-51 80t-19 108.5zM229 1157l197 291h319l197 -291h-233l-123 160l-125 -160h-232zM358 291q0 -55 38 -85t100 -30q109 0 188.5 85.5t79.5 236.5l-254 -66q-152 -30 -152 -141z" />
<glyph unicode="&#xe3;" horiz-adv-x="1150" d="M76 260q0 66 23.5 119.5t59.5 88t90.5 62t103.5 42.5t112 28l188 43q47 11 71 26.5t24 49.5q0 66 -52 99.5t-129 33.5q-87 0 -141.5 -40t-71.5 -118l-272 41q33 160 160.5 239t328.5 79q224 0 342.5 -97.5t118.5 -281.5v-488q0 -114 19 -159v-27h-281l-12 141 q-50 -78 -144.5 -119.5t-201.5 -41.5q-52 0 -99 9t-91 30t-76 52.5t-51 80t-19 108.5zM244 1157q0 127 58.5 207t158.5 80q44 0 80.5 -15.5t54.5 -31.5t43 -43q22 -30 41 -44t47 -14q61 0 61 134h140q0 -126 -58 -206.5t-161 -80.5q-45 0 -81 15.5t-54 32t-39 42.5 q-17 20 -27 29.5t-27 18.5t-35 9q-33 0 -49 -37t-16 -96h-137zM358 291q0 -55 38 -85t100 -30q109 0 188.5 85.5t79.5 236.5l-254 -66q-152 -30 -152 -141z" />
<glyph unicode="&#xe4;" horiz-adv-x="1150" d="M76 260q0 66 23.5 119.5t59.5 88t90.5 62t103.5 42.5t112 28l188 43q47 11 71 26.5t24 49.5q0 66 -52 99.5t-129 33.5q-87 0 -141.5 -40t-71.5 -118l-272 41q33 160 160.5 239t328.5 79q224 0 342.5 -97.5t118.5 -281.5v-488q0 -114 19 -159v-27h-281l-12 141 q-50 -78 -144.5 -119.5t-201.5 -41.5q-52 0 -99 9t-91 30t-76 52.5t-51 80t-19 108.5zM209 1356q0 67 48.5 114.5t117.5 47.5q66 0 114 -47.5t48 -114.5q0 -68 -47.5 -116t-114.5 -48q-69 0 -117.5 47.5t-48.5 116.5zM358 291q0 -55 38 -85t100 -30q109 0 188.5 85.5 t79.5 236.5l-254 -66q-152 -30 -152 -141zM631 1356q0 67 49 114.5t117 47.5q67 0 115.5 -47.5t48.5 -114.5q0 -68 -48.5 -116t-115.5 -48q-68 0 -117 48t-49 116z" />
<glyph unicode="&#xe5;" horiz-adv-x="1150" d="M76 260q0 66 23.5 119.5t59.5 88t90.5 62t103.5 42.5t112 28l188 43q47 11 71 26.5t24 49.5q0 66 -52 99.5t-129 33.5q-87 0 -141.5 -40t-71.5 -118l-272 41q33 160 160.5 239t328.5 79q224 0 342.5 -97.5t118.5 -281.5v-488q0 -114 19 -159v-27h-281l-12 141 q-50 -78 -144.5 -119.5t-201.5 -41.5q-52 0 -99 9t-91 30t-76 52.5t-51 80t-19 108.5zM332 1391q0 103 70 174t184 71q112 0 181 -71t69 -174q0 -104 -69.5 -176t-180.5 -72q-114 0 -184 72t-70 176zM358 291q0 -55 38 -85t100 -30q109 0 188.5 85.5t79.5 236.5l-254 -66 q-152 -30 -152 -141zM475 1391q0 -47 32.5 -79t78.5 -32t78 32t32 79q0 50 -31.5 80t-78.5 30q-48 0 -79.5 -30t-31.5 -80z" />
<glyph unicode="&#xe6;" horiz-adv-x="1871" d="M82 258q0 65 22.5 116.5t57.5 85.5t90 61t107 43t122 30l164 33q51 12 72.5 32t21.5 52q0 77 -52.5 113t-133.5 36q-190 0 -209 -182l-254 39q31 173 147.5 253.5t335.5 80.5q233 0 334 -109q142 111 357 111q113 0 207 -33t164.5 -97t110 -166t40.5 -233l-4 -65h-785 q10 -121 86 -188.5t189 -67.5q170 0 229 141l262 -35q-51 -157 -181 -243t-310 -86q-144 0 -257.5 47t-185.5 137q-76 -92 -182.5 -138t-228.5 -46q-150 0 -243 68.5t-93 209.5zM360 299q0 -47 37 -73.5t99 -26.5q73 0 142 38t99 111q-15 58 -18 123l-195 -45 q-83 -18 -123.5 -48t-40.5 -79zM1004 633h501q-12 98 -77 154.5t-162 56.5q-107 0 -174.5 -54t-87.5 -157z" />
<glyph unicode="&#xe7;" horiz-adv-x="1216" d="M78 518q0 238 154.5 386.5t402.5 148.5q200 0 336 -100.5t172 -282.5l-262 -25q-23 92 -87.5 139t-162.5 47q-122 0 -196.5 -87t-74.5 -226q0 -140 74.5 -227.5t196.5 -87.5q98 0 162.5 47t87.5 139l262 -24q-33 -169 -156 -270t-301 -113l-63 -99q30 6 55 6 q84 0 134 -50t50 -130q0 -90 -64.5 -150.5t-164.5 -60.5q-101 0 -162.5 39t-83.5 103l156 43q20 -56 84 -56q37 0 62.5 22t25.5 60t-24.5 59t-61.5 21q-51 0 -74 -33l-133 58l102 174q-202 32 -324 175.5t-122 354.5z" />
<glyph unicode="&#xe8;" horiz-adv-x="1216" d="M74 516q0 248 150.5 392.5t396.5 144.5q113 0 207 -33t164.5 -97t109.5 -166t39 -233l-2 -65h-785q10 -121 85.5 -188.5t187.5 -67.5q83 0 142.5 35.5t88.5 105.5l262 -35q-50 -157 -181 -243t-310 -86q-255 0 -405 143.5t-150 392.5zM274 1450h301l181 -291h-248z M360 633h500q-10 98 -75.5 154.5t-163.5 56.5q-106 0 -173.5 -53.5t-87.5 -157.5z" />
<glyph unicode="&#xe9;" horiz-adv-x="1216" d="M74 516q0 248 150.5 392.5t396.5 144.5q113 0 207 -33t164.5 -97t109.5 -166t39 -233l-2 -65h-785q10 -121 85.5 -188.5t187.5 -67.5q83 0 142.5 35.5t88.5 105.5l262 -35q-50 -157 -181 -243t-310 -86q-255 0 -405 143.5t-150 392.5zM360 633h500q-10 98 -75.5 154.5 t-163.5 56.5q-106 0 -173.5 -53.5t-87.5 -157.5zM500 1159l180 291h301l-233 -291h-248z" />
<glyph unicode="&#xea;" horiz-adv-x="1216" d="M74 516q0 248 150.5 392.5t396.5 144.5q113 0 207 -33t164.5 -97t109.5 -166t39 -233l-2 -65h-785q10 -121 85.5 -188.5t187.5 -67.5q83 0 142.5 35.5t88.5 105.5l262 -35q-50 -157 -181 -243t-310 -86q-255 0 -405 143.5t-150 392.5zM272 1159l197 291h319l197 -291 h-233l-123 160l-125 -160h-232zM360 633h500q-10 98 -75.5 154.5t-163.5 56.5q-106 0 -173.5 -53.5t-87.5 -157.5z" />
<glyph unicode="&#xeb;" horiz-adv-x="1216" d="M74 516q0 248 150.5 392.5t396.5 144.5q113 0 207 -33t164.5 -97t109.5 -166t39 -233l-2 -65h-785q10 -121 85.5 -188.5t187.5 -67.5q83 0 142.5 35.5t88.5 105.5l262 -35q-50 -157 -181 -243t-310 -86q-255 0 -405 143.5t-150 392.5zM252 1358q0 67 48.5 114.5 t117.5 47.5q66 0 114 -47.5t48 -114.5q0 -68 -48 -116t-114 -48q-69 0 -117.5 47.5t-48.5 116.5zM360 633h500q-10 98 -75.5 154.5t-163.5 56.5q-106 0 -173.5 -53.5t-87.5 -157.5zM674 1358q0 67 49 114.5t117 47.5q67 0 115.5 -47.5t48.5 -114.5q0 -68 -48.5 -116 t-115.5 -48q-68 0 -117 48t-49 116z" />
<glyph unicode="&#xec;" horiz-adv-x="530" d="M-90 1448h303l180 -291h-248zM123 0v1032h285v-1032h-285z" />
<glyph unicode="&#xed;" horiz-adv-x="530" d="M123 0v1032h285v-1032h-285zM137 1157l180 291h301l-233 -291h-248z" />
<glyph unicode="&#xee;" horiz-adv-x="530" d="M-92 1157l198 291h320l197 -291h-234l-123 160l-125 -160h-233zM123 0v1032h285v-1032h-285z" />
<glyph unicode="&#xef;" horiz-adv-x="530" d="M-113 1356q0 67 49.5 114.5t118.5 47.5q66 0 114 -47.5t48 -114.5q0 -68 -47.5 -116t-114.5 -48q-69 0 -118.5 47.5t-49.5 116.5zM123 0v1032h285v-1032h-285zM311 1356q0 67 49 114.5t117 47.5q67 0 115.5 -47.5t48.5 -114.5q0 -68 -48.5 -116t-115.5 -48q-68 0 -117 48 t-49 116z" />
<glyph unicode="&#xf0;" horiz-adv-x="1251" d="M57 518q0 243 155 387.5t406 147.5l-145 186l-256 -65l-22 79l223 58l-176 225h319l121 -158l205 52l20 -80l-170 -43l336 -441q117 -150 117 -348q0 -247 -156 -391.5t-409 -146.5q-254 2 -411 146.5t-157 391.5zM340 518q0 -140 78.5 -227.5t206.5 -87.5 q127 0 204.5 87.5t77.5 227.5q0 137 -77.5 224t-204.5 87q-128 0 -206.5 -86.5t-78.5 -224.5z" />
<glyph unicode="&#xf1;" horiz-adv-x="1245" d="M125 0v1032h285v-117q119 138 327 138q193 0 292 -94.5t99 -268.5v-690h-282v631q0 98 -54.5 147t-144.5 49q-97 0 -161.5 -54t-75.5 -171v-602h-285zM272 1157q0 127 58.5 207t158.5 80q44 0 81 -15.5t55.5 -31.5t42.5 -43q22 -30 41 -44t47 -14q61 0 61 134h139 q0 -126 -58 -206.5t-161 -80.5q-45 0 -81 15.5t-54 32t-39 42.5q-18 21 -27 30t-26 18t-35 9q-33 0 -49 -37t-16 -96h-138z" />
<glyph unicode="&#xf2;" horiz-adv-x="1286" d="M78 518q0 244 156.5 388.5t408.5 146.5q254 -2 410.5 -146t156.5 -389q0 -247 -156.5 -391.5t-410.5 -146.5q-253 2 -409 146.5t-156 391.5zM293 1448h301l180 -291h-248zM360 518q0 -140 78 -226.5t205 -86.5t205 86.5t78 226.5q0 137 -78 223t-205 86t-205 -86 t-78 -223z" />
<glyph unicode="&#xf3;" horiz-adv-x="1286" d="M78 518q0 244 156.5 388.5t408.5 146.5q254 -2 410.5 -146t156.5 -389q0 -247 -156.5 -391.5t-410.5 -146.5q-253 2 -409 146.5t-156 391.5zM360 518q0 -140 78 -226.5t205 -86.5t205 86.5t78 226.5q0 137 -78 223t-205 86t-205 -86t-78 -223zM520 1157l180 291h301 l-233 -291h-248z" />
<glyph unicode="&#xf4;" horiz-adv-x="1286" d="M78 518q0 244 156.5 388.5t408.5 146.5q254 -2 410.5 -146t156.5 -389q0 -247 -156.5 -391.5t-410.5 -146.5q-253 2 -409 146.5t-156 391.5zM291 1157l196 291h320l197 -291h-234l-123 160l-125 -160h-231zM360 518q0 -140 78 -226.5t205 -86.5t205 86.5t78 226.5 q0 137 -78 223t-205 86t-205 -86t-78 -223z" />
<glyph unicode="&#xf5;" horiz-adv-x="1286" d="M78 518q0 244 156.5 388.5t408.5 146.5q254 -2 410.5 -146t156.5 -389q0 -247 -156.5 -391.5t-410.5 -146.5q-253 2 -409 146.5t-156 391.5zM305 1157q0 127 58.5 207t158.5 80q44 0 80.5 -15.5t54.5 -31.5t43 -43q22 -30 41 -44t47 -14q62 0 62 134h139 q0 -126 -58 -206.5t-161 -80.5q-45 0 -81 15.5t-54 32t-39 42.5q-18 21 -27 30t-26 18t-35 9q-33 0 -49.5 -37.5t-16.5 -95.5h-137zM360 518q0 -140 78 -226.5t205 -86.5t205 86.5t78 226.5q0 137 -78 223t-205 86t-205 -86t-78 -223z" />
<glyph unicode="&#xf6;" horiz-adv-x="1286" d="M78 518q0 244 156.5 388.5t408.5 146.5q254 -2 410.5 -146t156.5 -389q0 -247 -156.5 -391.5t-410.5 -146.5q-253 2 -409 146.5t-156 391.5zM270 1356q0 67 48.5 114.5t117.5 47.5q66 0 114 -47.5t48 -114.5q0 -68 -48 -116t-114 -48q-69 0 -117.5 47.5t-48.5 116.5z M360 518q0 -140 78 -226.5t205 -86.5t205 86.5t78 226.5q0 137 -78 223t-205 86t-205 -86t-78 -223zM692 1356q0 67 49 114.5t117 47.5q67 0 115.5 -47.5t48.5 -114.5q0 -68 -48.5 -116t-115.5 -48q-68 0 -117 48t-49 116z" />
<glyph unicode="&#xf7;" horiz-adv-x="1247" d="M113 412v213h1024v-213h-1024zM471 131q0 59 43.5 102t101.5 43q59 0 102.5 -43.5t43.5 -101.5q0 -61 -43.5 -103t-102.5 -42t-102 42t-43 103zM471 903q0 59 43.5 102.5t101.5 43.5t102 -43.5t44 -102.5q0 -61 -43.5 -103t-102.5 -42t-102 42t-43 103z" />
<glyph unicode="&#xf8;" horiz-adv-x="1286" d="M78 518q0 244 156.5 388.5t408.5 146.5q142 0 262 -52l88 127l111 -67l-86 -123q92 -70 142 -177.5t50 -242.5q0 -247 -156.5 -391.5t-410.5 -146.5q-138 0 -258 49l-88 -125l-109 67l84 123q-93 70 -143.5 178.5t-50.5 245.5zM360 518q0 -126 64 -209l342 492 q-53 26 -123 26q-127 0 -205 -86t-78 -223zM524 229q52 -24 119 -24q127 0 205 86.5t78 226.5q0 118 -60 201z" />
<glyph unicode="&#xf9;" horiz-adv-x="1247" d="M115 342v690h282v-631q0 -98 54.5 -146t144.5 -48q105 0 172 63t68 201v561h284v-1032h-284v119q-117 -139 -328 -139q-193 0 -293 94.5t-100 267.5zM264 1448h301l180 -291h-247z" />
<glyph unicode="&#xfa;" horiz-adv-x="1247" d="M115 342v690h282v-631q0 -98 54.5 -146t144.5 -48q105 0 172 63t68 201v561h284v-1032h-284v119q-117 -139 -328 -139q-193 0 -293 94.5t-100 267.5zM489 1157l181 291h301l-234 -291h-248z" />
<glyph unicode="&#xfb;" horiz-adv-x="1247" d="M115 342v690h282v-631q0 -98 54.5 -146t144.5 -48q105 0 172 63t68 201v561h284v-1032h-284v119q-117 -139 -328 -139q-193 0 -293 94.5t-100 267.5zM262 1157l197 291h319l197 -291h-234l-123 160l-124 -160h-232z" />
<glyph unicode="&#xfc;" horiz-adv-x="1247" d="M115 342v690h282v-631q0 -98 54.5 -146t144.5 -48q105 0 172 63t68 201v561h284v-1032h-284v119q-117 -139 -328 -139q-193 0 -293 94.5t-100 267.5zM242 1356q0 67 48.5 114.5t117.5 47.5q66 0 113.5 -47.5t47.5 -114.5q0 -69 -47.5 -116.5t-113.5 -47.5 q-69 0 -117.5 47.5t-48.5 116.5zM664 1356q0 67 48.5 114.5t116.5 47.5q67 0 115.5 -47.5t48.5 -114.5q0 -68 -48.5 -116t-115.5 -48q-68 0 -116.5 47.5t-48.5 116.5z" />
<glyph unicode="&#xfd;" horiz-adv-x="1191" d="M29 1032h307l260 -694l258 694h309l-649 -1530h-309l244 549zM477 1157l180 291h301l-233 -291h-248z" />
<glyph unicode="&#xfe;" horiz-adv-x="1314" d="M125 -498v2034h285v-629q47 70 132.5 108t190.5 38q104 0 195 -37.5t159.5 -105.5t108 -170.5t39.5 -225.5t-39.5 -225.5t-108 -170.5t-159.5 -105.5t-195 -37.5q-105 0 -190.5 38t-132.5 108v-619h-285zM397 514q0 -139 78 -222t199 -83q122 0 199 83t77 222t-77 222 t-199 83q-121 0 -199 -83t-78 -222z" />
<glyph unicode="&#xff;" horiz-adv-x="1191" d="M29 1032h307l260 -694l258 694h309l-649 -1530h-309l244 549zM229 1356q0 67 48.5 114.5t117.5 47.5q66 0 114 -47.5t48 -114.5q0 -68 -47.5 -116t-114.5 -48q-69 0 -117.5 47.5t-48.5 116.5zM651 1356q0 67 49 114.5t117 47.5q67 0 115.5 -47.5t48.5 -114.5 q0 -68 -48.5 -116t-115.5 -48q-68 0 -117 48t-49 116z" />
<glyph unicode="&#x152;" horiz-adv-x="1935" d="M76 725q0 403 252 588q186 135 530 135h985v-258h-547v-338h488v-256h-488v-336h547v-260h-985q-344 0 -530 135q-252 184 -252 590zM371 725q0 -264 166 -381q116 -84 323 -84h141v930h-141q-204 0 -323 -86q-166 -114 -166 -379z" />
<glyph unicode="&#x153;" horiz-adv-x="2080" d="M78 518q0 244 156.5 388.5t408.5 146.5q266 -3 422 -156q150 156 408 156q113 0 207 -33t164.5 -97t110 -166t40.5 -233l-4 -65h-783q0 -4 -2 -6q12 -118 87.5 -184t187.5 -66q170 0 229 141l262 -35q-51 -157 -181 -243t-310 -86q-266 0 -418 155q-155 -152 -420 -155 q-253 2 -409 146.5t-156 391.5zM360 518q0 -140 78 -226.5t205 -86.5t205 86.5t78 226.5q0 137 -78 223t-205 86t-205 -86t-78 -223zM1212 633h502q-12 98 -77 154.5t-162 56.5q-107 0 -175 -54t-88 -157z" />
<glyph unicode="&#x178;" horiz-adv-x="1273" d="M2 1448h326l309 -506l309 506h324l-484 -760v-688h-297v684zM262 1694q0 67 48.5 114t117.5 47q66 0 114 -47t48 -114q0 -69 -48 -117.5t-114 -48.5q-69 0 -117.5 48.5t-48.5 117.5zM684 1694q0 67 49 114t117 47q67 0 115.5 -47t48.5 -114q0 -68 -49 -117t-115 -49 q-68 0 -117 48.5t-49 117.5z" />
<glyph unicode="&#x2c6;" horiz-adv-x="989" d="M139 1157l197 291h319l197 -291h-234l-122 160l-125 -160h-232z" />
<glyph unicode="&#x2dc;" horiz-adv-x="960" d="M139 1157q0 127 58.5 207t158.5 80q44 0 81 -15.5t55.5 -31.5t42.5 -43q22 -30 41 -44t47 -14q61 0 61 134h139q0 -126 -58 -206.5t-161 -80.5q-45 0 -81 15.5t-54 32t-39 42.5q-18 21 -27 30t-26 18t-35 9q-33 0 -49.5 -37.5t-16.5 -95.5h-137z" />
<glyph unicode="&#x2000;" horiz-adv-x="1012" />
<glyph unicode="&#x2001;" horiz-adv-x="2025" />
<glyph unicode="&#x2002;" horiz-adv-x="1012" />
<glyph unicode="&#x2003;" horiz-adv-x="2025" />
<glyph unicode="&#x2004;" horiz-adv-x="675" />
<glyph unicode="&#x2005;" horiz-adv-x="506" />
<glyph unicode="&#x2006;" horiz-adv-x="337" />
<glyph unicode="&#x2007;" horiz-adv-x="337" />
<glyph unicode="&#x2008;" horiz-adv-x="253" />
<glyph unicode="&#x2009;" horiz-adv-x="405" />
<glyph unicode="&#x200a;" horiz-adv-x="112" />
<glyph unicode="&#x2010;" horiz-adv-x="808" d="M45 412v213h717v-213h-717z" />
<glyph unicode="&#x2011;" horiz-adv-x="808" d="M45 412v213h717v-213h-717z" />
<glyph unicode="&#x2012;" horiz-adv-x="808" d="M45 412v213h717v-213h-717z" />
<glyph unicode="&#x2013;" horiz-adv-x="1024" d="M0 412v213h1024v-213h-1024z" />
<glyph unicode="&#x2014;" horiz-adv-x="2048" d="M0 412v213h2048v-213h-2048z" />
<glyph unicode="&#x2018;" horiz-adv-x="604" d="M82 793l213 655h203l-125 -655h-291z" />
<glyph unicode="&#x2019;" horiz-adv-x="604" d="M106 793l125 655h289l-211 -655h-203z" />
<glyph unicode="&#x201a;" horiz-adv-x="657" d="M133 -369l125 658h291l-213 -658h-203z" />
<glyph unicode="&#x201c;" horiz-adv-x="1077" d="M82 793l213 655h203l-125 -655h-291zM557 793l211 655h203l-125 -655h-289z" />
<glyph unicode="&#x201d;" horiz-adv-x="1077" d="M106 793l125 655h289l-211 -655h-203zM580 793l125 655h290l-213 -655h-202z" />
<glyph unicode="&#x201e;" horiz-adv-x="1122" d="M133 -369l125 658h291l-213 -658h-203zM598 -369l125 658h289l-211 -658h-203z" />
<glyph unicode="&#x2022;" horiz-adv-x="1021" d="M131 516q0 154 113.5 267.5t267.5 113.5q152 0 265.5 -113.5t113.5 -267.5q0 -159 -112.5 -269t-266.5 -110q-156 0 -268.5 110t-112.5 269z" />
<glyph unicode="&#x2026;" horiz-adv-x="1812" d="M162 143q0 66 48 115t114 49q67 0 116 -49t49 -115q0 -67 -48.5 -115t-116.5 -48q-66 0 -114 48t-48 115zM745 143q0 66 48 115t114 49q67 0 115.5 -49t48.5 -115q0 -67 -48 -115t-116 -48q-66 0 -114 48t-48 115zM1323 143q0 66 48 115t114 49q67 0 116.5 -49t49.5 -115 q0 -67 -49 -115t-117 -48q-66 0 -114 48t-48 115z" />
<glyph unicode="&#x202f;" horiz-adv-x="405" />
<glyph unicode="&#x2039;" horiz-adv-x="657" d="M57 518l312 377h229l-311 -377l311 -377h-229z" />
<glyph unicode="&#x203a;" horiz-adv-x="657" d="M59 141l312 377l-312 377h230l311 -377l-311 -377h-230z" />
<glyph unicode="&#x205f;" horiz-adv-x="506" />
<glyph unicode="&#x20ac;" horiz-adv-x="1576" d="M129 504v149h123q-2 25 -2 74q0 47 2 70h-123v151h143q56 249 227.5 384.5t411.5 135.5q181 0 323.5 -79t231.5 -218l-252 -153q-92 188 -303 188q-123 0 -211.5 -63.5t-128.5 -194.5h410v-151h-436q-2 -23 -2 -70q0 -51 2 -74h436v-149h-410q40 -131 128.5 -194.5 t211.5 -63.5q106 0 182.5 49.5t120.5 138.5l252 -153q-89 -140 -232 -220.5t-323 -80.5q-239 0 -411 137.5t-228 386.5h-143z" />
<glyph unicode="&#x2122;" horiz-adv-x="1447" d="M23 1315v133h495v-133h-170v-580h-151v580h-174zM561 735l62 713h221l149 -424l154 424h217l59 -713h-151l-47 531l-181 -531h-100l-180 533l-47 -533h-156z" />
<glyph unicode="&#x25fc;" horiz-adv-x="1034" d="M0 0v1034h1034v-1034h-1034z" />
<glyph unicode="&#xfb03;" horiz-adv-x="2019" d="M39 815v217h207v103q0 89 25 160t69 119.5t107 80.5t136.5 46.5t159.5 14.5q203 0 318 -106q126 106 364 106q181 0 297.5 -81.5t163.5 -225.5l-276 -71q-22 81 -68.5 116t-130.5 35q-199 0 -199 -194v-103h228v-217h-228v-815h-282v815h-400v-815h-284v815h-207z M530 1032h400v103q0 57 8 98q-71 96 -209 96q-103 0 -151 -48.5t-48 -145.5v-103zM1612 0v1032h282v-1032h-282z" />
<glyph unicode="&#xfb04;" horiz-adv-x="2021" d="M39 815v217h207v103q0 89 25 160t69 119.5t107 80.5t136.5 46.5t159.5 14.5q204 0 316 -106q126 106 354 106q103 0 188 -23.5t152.5 -72.5t105 -132t37.5 -193v-1135h-284v1120q0 209 -201 209q-82 0 -140.5 -47.5t-58.5 -146.5v-103h228v-217h-228v-815h-282v815h-400 v-815h-284v815h-207zM530 1032h400v103q0 57 8 98q-71 96 -209 96q-103 0 -151 -48.5t-48 -145.5v-103z" />
</font>
</defs>
</svg>
